<?xml version="1.0" encoding="utf-8"?>
<!-- Generator: Adobe Illustrator 22.1.0, SVG Export Plug-In . SVG Version: 6.00 Build 0)  -->
<svg version="1.1" id="ReorderTabs" xmlns="http://www.w3.org/2000/svg" xmlns:xlink="http://www.w3.org/1999/xlink" x="0px"
	 y="0px" viewBox="0 0 32 32" style="enable-background:new 0 0 32 32;" xml:space="preserve">
<style type="text/css">
	.Green{fill:#039C23;}
	.Black{fill:#727272;}
	.st0{opacity:0.5;}
</style>
<g class="st0">
	<path class="Black" d="M20,6h-6V2h6V6z M28,2h-6v4h6V2z"/>
</g>
<path class="Black" d="M11.2,24H2V4h8v6h16v5.2l2,2V9c0-0.6-0.4-1-1-1H12V3c0-0.6-0.4-1-1-1H1C0.4,2,0,2.4,0,3v22c0,0.6,0.4,1,1,1
	h12.2L11.2,24z"/>
<polygon class="Green" points="32,24 26,18 26,22 20,22 20,18 14,24 20,30 20,26 26,26 26,30 "/>
</svg>
